<svg viewBox="0 0 860 440" xmlns="http://www.w3.org/2000/svg" font-family="system-ui, sans-serif">
  <rect width="860" height="440" fill="#f8f9fa" rx="16"/>
  <text x="430" y="34" text-anchor="middle" font-size="17" font-weight="700" fill="#1a1a2e">Roadmap — ZAMMOT E-Commerce</text>
  <text x="430" y="52" text-anchor="middle" font-size="11" fill="#888">5 Abril 2026 → 14 Junio 2026 · Aplicaciones Web II</text>

  <!-- Timeline background -->
  <rect x="60" y="80" width="740" height="10" rx="5" fill="#e2e8f0"/>
  <!-- E1 -->
  <rect x="60"  y="80" width="70"  height="10" rx="5" fill="#6366f1"/>
  <!-- E2 -->
  <rect x="190" y="80" width="130" height="10" rx="0" fill="#6366f1"/>
  <rect x="190" y="80" width="4"   height="10" fill="#6366f1"/>
  <!-- E3 -->
  <rect x="360" y="80" width="130" height="10" rx="0" fill="#6366f1"/>
  <rect x="360" y="80" width="4"   height="10" fill="#6366f1"/>
  <!-- E4 -->
  <rect x="560" y="80" width="130" height="10" rx="0" fill="#f59e0b"/>
  <rect x="560" y="80" width="4"   height="10" fill="#f59e0b"/>
  <!-- FINAL -->
  <rect x="690" y="80" width="110" height="10" rx="5" fill="#22c55e"/>
  <rect x="690" y="80" width="4"   height="10" fill="#22c55e"/>

  <!-- Dots -->
  <circle cx="130" cy="85" r="8" fill="#6366f1" stroke="white" stroke-width="2"/>
  <text x="130" y="89" text-anchor="middle" font-size="9" font-weight="700" fill="white">1</text>
  <circle cx="320" cy="85" r="8" fill="#6366f1" stroke="white" stroke-width="2"/>
  <text x="320" y="89" text-anchor="middle" font-size="9" font-weight="700" fill="white">2</text>
  <circle cx="490" cy="85" r="8" fill="#6366f1" stroke="white" stroke-width="2"/>
  <text x="490" y="89" text-anchor="middle" font-size="9" font-weight="700" fill="white">3</text>
  <circle cx="690" cy="85" r="8" fill="#f59e0b" stroke="white" stroke-width="2"/>
  <text x="690" y="89" text-anchor="middle" font-size="9" font-weight="700" fill="white">4</text>
  <circle cx="800" cy="85" r="8" fill="#16a34a" stroke="white" stroke-width="2"/>
  <text x="800" y="89" text-anchor="middle" font-size="9" font-weight="700" fill="white">★</text>

  <!-- Date labels -->
  <text x="60"  y="106" text-anchor="middle" font-size="9" fill="#999">5 Abr</text>
  <text x="190" y="106" text-anchor="middle" font-size="9" fill="#999">18 Abr</text>
  <text x="360" y="106" text-anchor="middle" font-size="9" fill="#999">5 May</text>
  <text x="560" y="106" text-anchor="middle" font-size="9" fill="#999">25 May</text>
  <text x="690" y="106" text-anchor="middle" font-size="9" fill="#999">7 Jun</text>
  <text x="800" y="106" text-anchor="middle" font-size="9" fill="#999">14 Jun</text>

  <!-- Connectors -->
  <line x1="130" y1="95" x2="117" y2="124" stroke="#6366f1" stroke-width="1.2" stroke-dasharray="3,2" opacity="0.5"/>
  <line x1="320" y1="95" x2="305" y2="124" stroke="#6366f1" stroke-width="1.2" stroke-dasharray="3,2" opacity="0.5"/>
  <line x1="490" y1="95" x2="490" y2="124" stroke="#6366f1" stroke-width="1.2" stroke-dasharray="3,2" opacity="0.5"/>
  <line x1="690" y1="95" x2="660" y2="124" stroke="#f59e0b" stroke-width="1.2" stroke-dasharray="3,2" opacity="0.5"/>
  <line x1="800" y1="95" x2="800" y2="124" stroke="#16a34a" stroke-width="1.2" stroke-dasharray="3,2" opacity="0.5"/>

  <!-- CARD 1 -->
  <rect x="30"  y="124" width="162" height="188" rx="10" fill="white" stroke="#6366f1" stroke-width="1.5"/>
  <rect x="30"  y="124" width="162" height="7" rx="10" fill="#6366f1"/>
  <rect x="30"  y="128" width="162" height="3" fill="#6366f1"/>
  <text x="111" y="148" text-anchor="middle" font-size="10" font-weight="700" fill="#6366f1">ENTREGA 1</text>
  <text x="111" y="162" text-anchor="middle" font-size="9" fill="#888">5 Abr — 12 Abr</text>
  <line x1="44" y1="170" x2="178" y2="170" stroke="#e2e8f0" stroke-width="1"/>
  <text x="44" y="184" font-size="9" fill="#444">✦  3 JSONs interrelacionados</text>
  <text x="44" y="199" font-size="9" fill="#444">✦  usuarios.json</text>
  <text x="44" y="214" font-size="9" fill="#444">✦  products.json</text>
  <text x="44" y="229" font-size="9" fill="#444">✦  ventas.json</text>
  <text x="44" y="244" font-size="9" fill="#444">✦  Datos: num, string, bool</text>
  <text x="44" y="259" font-size="9" fill="#444">✦  Repositorio GitHub</text>
  <rect x="51" y="296" width="118" height="16" rx="8" fill="#ede9fe"/>
  <text x="110" y="307" text-anchor="middle" font-size="9" font-weight="600" fill="#5b21b6">Completada ✓</text>

  <!-- CARD 2 -->
  <rect x="200" y="124" width="162" height="188" rx="10" fill="white" stroke="#6366f1" stroke-width="1.5"/>
  <rect x="200" y="124" width="162" height="7" rx="10" fill="#6366f1"/>
  <rect x="200" y="128" width="162" height="3" fill="#6366f1"/>
  <text x="281" y="148" text-anchor="middle" font-size="10" font-weight="700" fill="#6366f1">ENTREGA 2</text>
  <text x="281" y="162" text-anchor="middle" font-size="9" fill="#888">18 Abr — 1 May</text>
  <line x1="214" y1="170" x2="348" y2="170" stroke="#e2e8f0" stroke-width="1"/>
  <text x="214" y="184" font-size="9" fill="#444">✦  Servidor Express.js</text>
  <text x="214" y="199" font-size="9" fill="#444">✦  2 GET · 2 POST</text>
  <text x="214" y="214" font-size="9" fill="#444">✦  1 PUT · 1 DELETE</text>
  <text x="214" y="229" font-size="9" fill="#444">✦  Integridad en DELETE</text>
  <text x="214" y="244" font-size="9" fill="#444">✦  Doc. de rutas</text>
  <text x="214" y="259" font-size="9" fill="#444">✦  .gitignore</text>
  <rect x="221" y="296" width="118" height="16" rx="8" fill="#ede9fe"/>
  <text x="280" y="307" text-anchor="middle" font-size="9" font-weight="600" fill="#5b21b6">Completada ✓</text>

  <!-- CARD 3 -->
  <rect x="370" y="124" width="162" height="188" rx="10" fill="white" stroke="#6366f1" stroke-width="1.5"/>
  <rect x="370" y="124" width="162" height="7" rx="10" fill="#6366f1"/>
  <rect x="370" y="128" width="162" height="3" fill="#6366f1"/>
  <text x="451" y="148" text-anchor="middle" font-size="10" font-weight="700" fill="#6366f1">ENTREGA 3</text>
  <text x="451" y="162" text-anchor="middle" font-size="9" fill="#888">5 May — 18 May</text>
  <line x1="384" y1="170" x2="518" y2="170" stroke="#e2e8f0" stroke-width="1"/>
  <text x="384" y="184" font-size="9" fill="#444">✦  Interfaz Frontend</text>
  <text x="384" y="199" font-size="9" fill="#444">✦  Listado de productos</text>
  <text x="384" y="214" font-size="9" fill="#444">✦  Filtros por categoría</text>
  <text x="384" y="229" font-size="9" fill="#444">✦  Carrito (localStorage)</text>
  <text x="384" y="244" font-size="9" fill="#444">✦  Funcionalidad de compra</text>
  <text x="384" y="259" font-size="9" fill="#444">✦  MultiRepo</text>
  <rect x="391" y="296" width="118" height="16" rx="8" fill="#ede9fe"/>
  <text x="450" y="307" text-anchor="middle" font-size="9" font-weight="600" fill="#5b21b6">Completada ✓</text>

  <!-- CARD 4 -->
  <rect x="540" y="124" width="148" height="188" rx="10" fill="white" stroke="#f59e0b" stroke-width="1.5"/>
  <rect x="540" y="124" width="148" height="7" rx="10" fill="#f59e0b"/>
  <rect x="540" y="128" width="148" height="3" fill="#f59e0b"/>
  <text x="614" y="148" text-anchor="middle" font-size="10" font-weight="700" fill="#b45309">ENTREGA 4</text>
  <text x="614" y="162" text-anchor="middle" font-size="9" fill="#888">25 May — 7 Jun</text>
  <line x1="554" y1="170" x2="674" y2="170" stroke="#e2e8f0" stroke-width="1"/>
  <text x="554" y="184" font-size="9" fill="#444">✦  bcryptjs (hash pass.)</text>
  <text x="554" y="199" font-size="9" fill="#444">✦  JWT (tokens)</text>
  <text x="554" y="214" font-size="9" fill="#444">✦  Ruta protegida</text>
  <text x="554" y="229" font-size="9" fill="#444">✦  MongoDB Atlas</text>
  <text x="554" y="244" font-size="9" fill="#444">✦  Mongoose + schemas</text>
  <text x="554" y="259" font-size="9" fill="#444">✦  Migración JSON → BD</text>
  <rect x="557" y="296" width="116" height="16" rx="8" fill="#fef3c7"/>
  <text x="615" y="307" text-anchor="middle" font-size="9" font-weight="600" fill="#92400e">Completada ✓</text>

  <!-- CARD FINAL -->
  <rect x="696" y="124" width="148" height="188" rx="10" fill="white" stroke="#16a34a" stroke-width="2"/>
  <rect x="696" y="124" width="148" height="7" rx="10" fill="#16a34a"/>
  <rect x="696" y="128" width="148" height="3" fill="#16a34a"/>
  <text x="770" y="148" text-anchor="middle" font-size="10" font-weight="700" fill="#15803d">ENTREGA FINAL</text>
  <text x="770" y="162" text-anchor="middle" font-size="9" fill="#888">7 Jun — 14 Jun</text>
  <line x1="710" y1="170" x2="830" y2="170" stroke="#e2e8f0" stroke-width="1"/>
  <text x="710" y="184" font-size="9" fill="#444">✦  Video explicativo</text>
  <text x="710" y="199" font-size="9" fill="#444">✦  CRUD + autenticación</text>
  <text x="710" y="214" font-size="9" fill="#444">✦  Demo Postman</text>
  <text x="710" y="229" font-size="9" fill="#444">✦  Estructura del código</text>
  <text x="710" y="244" font-size="9" fill="#444">✦  PDF / Markdown</text>
  <text x="710" y="259" font-size="9" fill="#444">✦  Link repo + video</text>
  <rect x="713" y="296" width="116" height="16" rx="8" fill="#dcfce7"/>
  <text x="771" y="307" text-anchor="middle" font-size="9" font-weight="600" fill="#15803d">Entrega final ✓</text>

  <!-- Legend -->
  <rect x="30"  y="330" width="12" height="8" rx="4" fill="#6366f1"/>
  <text x="48"  y="338" font-size="8.5" fill="#888">Módulos 1-3</text>
  <rect x="130" y="330" width="12" height="8" rx="4" fill="#f59e0b"/>
  <text x="148" y="338" font-size="8.5" fill="#888">Módulo 4</text>
  <rect x="210" y="330" width="12" height="8" rx="4" fill="#22c55e"/>
  <text x="228" y="338" font-size="8.5" fill="#888">Entrega final</text>
  <rect x="320" y="330" width="12" height="8" rx="4" fill="#e2e8f0"/>
  <text x="338" y="338" font-size="8.5" fill="#888">Sin entrega activa</text>

  <text x="430" y="390" text-anchor="middle" font-size="9" fill="#bbb">Aplicaciones Web II · Tomás Cuevas · 2026</text>
</svg>
